<svg width="47" height="30" viewBox="0 0 47 30" fill="none" xmlns="http://www.w3.org/2000/svg">
<path d="M9.432 8.552C10.848 8.552 12.072 8.864 13.104 9.488C14.16 10.088 14.94 10.928 15.444 12.008V8.804H22.5V29H15.444V25.796C14.94 26.876 14.16 27.728 13.104 28.352C12.072 28.952 10.848 29.252 9.432 29.252C7.824 29.252 6.372 28.844 5.076 28.028C3.78 27.188 2.76 25.988 2.016 24.428C1.272 22.844 0.9 20.996 0.9 18.884C0.9 16.772 1.272 14.936 2.016 13.376C2.76 11.816 3.78 10.628 5.076 9.812C6.372 8.972 7.824 8.552 9.432 8.552ZM11.772 14.744C10.668 14.744 9.768 15.116 9.072 15.86C8.4 16.58 8.064 17.588 8.064 18.884C8.064 20.204 8.4 21.236 9.072 21.98C9.768 22.7 10.668 23.06 11.772 23.06C12.828 23.06 13.704 22.688 14.4 21.944C15.096 21.2 15.444 20.18 15.444 18.884C15.444 17.612 15.096 16.604 14.4 15.86C13.704 15.116 12.828 14.744 11.772 14.744ZM37.5376 6.716C37.3696 6.692 37.1176 6.68 36.7816 6.68C35.9416 6.68 35.3296 6.848 34.9456 7.184C34.5616 7.496 34.3336 8.036 34.2616 8.804H37.5376V14.708H34.2256V29H27.1336V14.708H24.8296V8.804H27.1336C27.1336 6.212 27.9016 4.208 29.4376 2.792C30.9736 1.352 33.1816 0.631998 36.0616 0.631998C36.3736 0.631998 36.8656 0.655999 37.5376 0.704V6.716ZM46.1759 22.088V29H39.0119V22.088H46.1759Z" fill="#EBDEDE"/>
</svg>
